<svg height="512pt" viewBox="0 0 512 512" width="512pt" xmlns="http://www.w3.org/2000/svg"><path d="m512 256c0 141.386719-114.613281 256-256 256s-256-114.613281-256-256 114.613281-256 256-256 256 114.613281 256 256zm0 0" fill="#414952"/><path d="m512 256c0-12.171875-.867188-24.140625-2.511719-35.859375l-105.160156-105.160156-35.9375 37.558593-95.101563-95.101562-8.789062 27.4375.984375 143.679688-117.589844-117.589844-36.929687 36.929687 96.921875 96.921875-145.210938 29.210938 88.054688 88.054687-39.765625 38.957031 108.328125 108.328126c11.988281 1.722656 24.242187 2.632812 36.707031 2.632812 141.386719 0 256-114.613281 256-256zm0 0" fill="#23272b"/><path d="m430.441406 229.886719c-8.835937 0-16.644531 4.394531-21.367187 11.113281h-116.863281l85.855468-85.855469c8.09375 1.410157 16.722656-1 22.96875-7.25 10.199219-10.199219 10.199219-26.734375 0-36.929687-10.195312-10.199219-26.730468-10.199219-36.929687 0-6.246094 6.246094-8.660157 14.875-7.25 22.96875l-85.855469 85.851562v-121.414062c6.71875-4.726563 11.113281-12.53125 11.113281-21.371094 0-14.421875-11.6875-26.113281-26.113281-26.113281-14.421875 0-26.113281 11.691406-26.113281 26.113281 0 8.839844 4.394531 16.644531 11.113281 21.371094v121.414062l-85.855469-85.851562c1.410157-8.09375-1-16.71875-7.25-22.96875-10.199219-10.199219-26.734375-10.199219-36.929687 0-10.199219 10.195312-10.199219 26.730468 0 36.929687 6.25 6.25 14.875 8.660157 22.96875 7.25l85.851562 85.855469h-116.859375c-4.722656-6.71875-12.53125-11.113281-21.367187-11.113281-14.421875 0-26.117188 11.691406-26.117188 26.113281s11.695313 26.113281 26.117188 26.113281c8.835937 0 16.644531-4.394531 21.367187-11.113281h116.859375l-100.964844 100.964844 21.214844 21.214844 100.964844-100.96875v121.417968c-6.71875 4.726563-11.113281 12.53125-11.113281 21.371094 0 14.421875 11.691406 26.113281 26.113281 26.113281s26.113281-11.691406 26.113281-26.113281c0-8.839844-4.394531-16.644531-11.113281-21.371094v-121.417968l85.855469 85.855468c-1.410157 8.09375 1 16.71875 7.25 22.96875 10.199219 10.199219 26.734375 10.199219 36.929687 0 10.199219-10.195312 10.199219-26.730468 0-36.929687-6.25-6.25-14.875-8.660157-22.96875-7.25l-85.855468-85.855469h116.863281c4.722656 6.71875 12.53125 11.113281 21.367187 11.113281 14.421875 0 26.117188-11.691406 26.117188-26.113281s-11.695313-26.113281-26.117188-26.113281zm0 0" fill="#ffe000"/><path d="m430.441406 229.886719c-8.835937 0-16.644531 4.394531-21.367187 11.113281h-116.863281l85.855468-85.855469c8.09375 1.410157 16.722656-1 22.96875-7.25 10.199219-10.199219 10.199219-26.734375 0-36.929687-10.195312-10.199219-26.730468-10.199219-36.929687 0-6.246094 6.246094-8.660157 14.875-7.25 22.96875l-85.855469 85.851562v-121.414062c6.71875-4.726563 11.113281-12.53125 11.113281-21.371094 0-14.421875-11.6875-26.113281-26.113281-26.113281-.0625 0-.125.003906-.1875.003906v410.21875c.0625 0 .125.003906.1875.003906 14.421875 0 26.113281-11.691406 26.113281-26.113281 0-8.839844-4.394531-16.644531-11.113281-21.371094v-121.417968l85.855469 85.855468c-1.410157 8.09375 1.003906 16.71875 7.25 22.96875 10.199219 10.199219 26.734375 10.199219 36.933593 0 10.195313-10.195312 10.195313-26.730468 0-36.929687-6.25-6.25-14.878906-8.660157-22.972656-7.25l-85.851562-85.855469h116.859375c4.726562 6.71875 12.53125 11.113281 21.371093 11.113281 14.421876 0 26.113282-11.691406 26.113282-26.113281s-11.695313-26.113281-26.117188-26.113281zm0 0" fill="#ffc200"/><path d="m147.890625 364.105469c-10.199219-10.199219-26.734375-10.199219-36.929687 0-10.199219 10.199219-10.199219 26.734375 0 36.929687 10.195312 10.199219 26.730468 10.199219 36.929687 0 10.199219-10.195312 10.199219-26.730468 0-36.929687zm0 0" fill="#ffe000"/><path d="m350.332031 256c0 52.097656-42.234375 94.332031-94.332031 94.332031s-94.332031-42.234375-94.332031-94.332031 42.234375-94.332031 94.332031-94.332031 94.332031 42.234375 94.332031 94.332031zm0 0" fill="#fff"/><path d="m256 161.667969c-.0625 0-.128906 0-.191406 0v188.664062h.191406c52.097656 0 94.332031-42.234375 94.332031-94.332031s-42.234375-94.332031-94.332031-94.332031zm0 0" fill="#e9edf5"/><path d="m294.949219 221.339844c0 21.511718-17.4375 38.949218-38.949219 38.949218s-38.949219-17.4375-38.949219-38.949218c0-21.511719 17.4375-38.949219 38.949219-38.949219s38.949219 17.4375 38.949219 38.949219zm0 0" fill="#4a7aff"/><path d="m256 182.390625c-.0625 0-.128906.003906-.191406.003906v77.886719c.066406 0 .128906.007812.191406.007812 21.511719 0 38.949219-17.4375 38.949219-38.949218 0-21.511719-17.4375-38.949219-38.949219-38.949219zm0 0" fill="#0053bf"/><path d="m256 350.332031c26.558594 0 50.550781-10.980469 67.691406-28.640625-5.320312-32.59375-33.59375-57.472656-67.691406-57.472656s-62.371094 24.878906-67.691406 57.472656c17.140625 17.660156 41.132812 28.640625 67.691406 28.640625zm0 0" fill="#4a7aff"/><path d="m256 264.21875c-.0625 0-.128906.003906-.191406.003906v86.109375h.191406c26.558594 0 50.550781-10.980469 67.691406-28.640625-5.320312-32.59375-33.59375-57.472656-67.691406-57.472656zm0 0" fill="#0053bf"/></svg>